<svg width="449" height="131" viewBox="0 0 449 131" fill="none" xmlns="http://www.w3.org/2000/svg">
<path fill-rule="evenodd" clip-rule="evenodd" d="M320.369 121.226V108.546L357.299 60.8359H320.489V48.7659H375.279V61.5759L337.719 109.146H376.569V121.226H320.359H320.369Z" fill="#152100"/>
<path d="M262.859 121.216H247.789V48.7659H262.499V58.8759H263.009L274.209 47.5259H285.309C303.389 47.5259 311.679 61.3859 311.679 78.4159V121.226H296.159V77.6659C296.159 68.7759 291.189 59.5859 280.789 59.5859H263.009L262.859 121.216Z" fill="#152100"/>
<path d="M222.349 110.216H200.349C193.569 110.216 189.649 104.946 189.649 99.2159C189.649 91.5259 196.729 87.1559 204.419 86.2559L222.349 84.2959V110.216ZM199.599 122.276H210.659L222.359 111.026H223.169V121.216H237.879V77.3659C237.869 58.0759 225.819 47.5259 206.229 47.5259C190.559 47.5259 178.349 54.3159 176.839 70.2859H192.059C192.059 63.3559 197.329 58.9859 206.529 58.9859C216.319 58.9859 222.199 63.9559 222.349 73.4559L202.309 75.5659C189.199 76.9159 173.679 82.3359 173.679 98.3159C173.679 112.326 185.579 122.276 199.599 122.276Z" fill="#152100"/>
<path d="M428.959 110.216H406.959C400.179 110.216 396.259 104.946 396.259 99.2159C396.259 91.5259 403.339 87.1559 411.029 86.2559L428.959 84.2959V110.216ZM406.209 122.276H417.269L428.969 111.026H429.779V121.216H444.489V77.3659C444.479 58.0759 432.429 47.5259 412.839 47.5259C397.169 47.5259 384.959 54.3059 383.459 70.2759H398.679C398.679 63.3459 403.949 58.9759 413.149 58.9759C422.939 58.9759 428.819 63.9459 428.969 73.4459L408.929 75.5559C395.819 76.9159 380.299 82.3359 380.299 98.3059C380.299 112.316 392.199 122.266 406.219 122.266L406.209 122.276Z" fill="#152100"/>
<path d="M37.1011 42.5815L68.1411 5.58154L119.941 35.4915L144.081 125.592H85.0211L37.1011 42.5815Z" fill="#152100"/>
<path d="M23.2706 68.4712L5.37061 89.8112L14.9606 125.581H47.9606L66.5306 93.4512L23.2706 68.4712Z" fill="#152100"/>
</svg>
