<svg width="449" height="131" viewBox="0 0 449 131" fill="none" xmlns="http://www.w3.org/2000/svg">
<path fill-rule="evenodd" clip-rule="evenodd" d="M320.369 120.986V108.306L357.299 60.5961H320.489V48.5261H375.279V61.3361L337.719 108.906H376.569V120.986H320.359H320.369Z" fill="#F8F8F8"/>
<path d="M262.859 120.976H247.789V48.5261H262.499V58.6361H263.009L274.209 47.2861H285.309C303.389 47.2861 311.679 61.1461 311.679 78.1761V120.986H296.159V77.4261C296.159 68.5361 291.189 59.3461 280.789 59.3461H263.009L262.859 120.976Z" fill="#F8F8F8"/>
<path d="M222.349 109.976H200.349C193.569 109.976 189.649 104.706 189.649 98.9761C189.649 91.2861 196.729 86.9161 204.419 86.0161L222.349 84.0561V109.976ZM199.599 122.036H210.659L222.359 110.786H223.169V120.976H237.879V77.1261C237.869 57.8361 225.819 47.2861 206.229 47.2861C190.559 47.2861 178.349 54.0761 176.839 70.0461H192.059C192.059 63.1161 197.329 58.7461 206.529 58.7461C216.319 58.7461 222.199 63.7161 222.349 73.2161L202.309 75.3261C189.199 76.6761 173.679 82.0961 173.679 98.0761C173.679 112.086 185.579 122.036 199.599 122.036Z" fill="#F8F8F8"/>
<path d="M428.959 109.976H406.959C400.179 109.976 396.259 104.706 396.259 98.9761C396.259 91.2861 403.339 86.9161 411.029 86.0161L428.959 84.0561V109.976ZM406.209 122.036H417.269L428.969 110.786H429.779V120.976H444.489V77.1261C444.479 57.8361 432.429 47.2861 412.839 47.2861C397.169 47.2861 384.959 54.0661 383.459 70.0361H398.679C398.679 63.1061 403.949 58.7361 413.149 58.7361C422.939 58.7361 428.819 63.7061 428.969 73.2061L408.929 75.3161C395.819 76.6761 380.299 82.0961 380.299 98.0661C380.299 112.076 392.199 122.026 406.219 122.026L406.209 122.036Z" fill="#F8F8F8"/>
<path d="M37.1011 42.3418L68.1411 5.3418L119.941 35.2518L144.081 125.352H85.0211L37.1011 42.3418Z" fill="#F8F8F8"/>
<path d="M23.2706 68.2314L5.37061 89.5714L14.9606 125.341H47.9606L66.5306 93.2114L23.2706 68.2314Z" fill="#F8F8F8"/>
</svg>
